<svg width="126" height="130" viewBox="0 0 126 130" fill="none" xmlns="http://www.w3.org/2000/svg">
<path d="M55.8073 127.01L55.7977 127L2.95894 73.7279C-0.999397 69.7369 -0.984666 63.2818 2.99348 59.3092C6.97112 55.3371 13.4047 55.3524 17.3636 59.3433L52.8387 95.1105L52.8387 -120.805C52.8387 -126.436 57.3879 -131 63 -131C68.6121 -131 73.1613 -126.436 73.1613 -120.805L73.1613 95.11L108.636 59.3438C112.595 55.3529 119.029 55.3376 123.007 59.3097C126.985 63.2823 126.999 69.738 123.041 73.7284L70.2023 127.001L70.1927 127.01C66.2206 131.003 59.7662 130.99 55.8073 127.01Z" fill="white" fill-opacity="0.07"/>
</svg>
