<svg width="126" height="261" viewBox="0 0 126 261" fill="none" xmlns="http://www.w3.org/2000/svg">
<path d="M55.8073 2.99042L55.7977 2.99959L2.95894 56.2721C-0.999397 60.2631 -0.984666 66.7182 2.99348 70.6908C6.97112 74.6629 13.4047 74.6476 17.3636 70.6567L52.8387 34.8895V125L52.8387 250.805C52.8387 256.436 57.3879 261 63 261C68.6121 261 73.1613 256.436 73.1613 250.805L73.1613 34.89L108.636 70.6562C112.595 74.6471 119.029 74.6624 123.007 70.6903C126.985 66.7177 126.999 60.262 123.041 56.2716L70.2023 2.99907L70.1927 2.9899C66.2206 -1.00309 59.7662 -0.99034 55.8073 2.99042Z" fill="white" fill-opacity="0.07"/>
</svg>
